<svg width="601" height="129" viewBox="0 0 601 129" fill="none" xmlns="http://www.w3.org/2000/svg">
<path d="M0.0946252 71V2.36H21.2146L35.3266 46.136H35.5186L49.6306 2.36H70.7506V71H54.4306V28.28H54.2386L41.4706 71H29.3746L16.6066 28.28H16.4146V71H0.0946252ZM119.636 56.696H96.1156L91.6996 71H74.4196L99.2836 2.36H116.564L141.332 71H124.052L119.636 56.696ZM100.052 43.544H115.796L108.02 18.2H107.828L100.052 43.544ZM173.647 28.376C186.607 31.928 199.951 36.152 199.951 50.84C199.951 63.992 189.967 72.536 172.783 72.536C154.927 72.536 141.487 63.704 141.487 48.44H158.767C158.767 55.736 165.103 58.424 172.783 58.424C179.215 58.424 182.671 55.928 182.671 52.472C182.671 47 175.279 45.752 165.583 42.872C153.775 39.416 143.407 34.328 143.407 21.656C143.407 6.68 155.119 0.823999 169.903 0.823999C185.935 0.823999 198.511 9.272 198.991 23.192H181.711C180.943 18.008 176.527 14.936 169.903 14.936C164.719 14.936 160.687 16.568 160.687 20.408C160.687 24.632 165.007 25.976 173.647 28.376ZM206.907 2.36H224.187V30.2L248.091 2.36H268.251L242.139 32.6L269.211 71H249.051L231.099 44.984L224.187 52.856V71H206.907V2.36ZM305.997 46.04H289.293V32.792H305.997V15.416H319.245V32.792H335.949V46.04H319.245V63.416H305.997V46.04ZM377.741 71V16.472H357.773V2.36H414.893V16.472H395.021V71H377.741ZM438.5 28.664H468.452V42.776H438.5V56.888H473.828V71H421.22V2.36H473.252V16.472H438.5V28.664ZM499.837 35.96L479.005 2.36H497.245L509.821 23.288H510.013L522.685 2.36H540.925L520.093 35.768L542.845 71H523.645L510.013 48.728H509.821L496.285 71H477.085L499.837 35.96ZM563.834 71V16.472H543.866V2.36H600.986V16.472H581.114V71H563.834ZM227.217 128.672C219.729 128.672 215.217 123.392 215.217 115.76C215.217 108.128 219.729 102.848 227.217 102.848C234.657 102.848 239.169 108.128 239.169 115.76C239.169 123.392 234.657 128.672 227.217 128.672ZM227.217 125.312C232.689 125.312 235.329 120.992 235.329 115.76C235.329 110.528 232.689 106.208 227.217 106.208C221.697 106.208 219.057 110.528 219.057 115.76C219.057 120.992 221.697 125.312 227.217 125.312ZM255.046 102.848C259.51 102.848 263.254 105.296 263.254 110.912V128H259.414V111.872C259.414 108.704 257.926 106.208 254.086 106.208C249.766 106.208 246.886 108.944 246.886 112.736V128H243.046V103.52H246.886V106.448H246.982C248.278 104.72 250.87 102.848 255.046 102.848ZM287.951 113.456C292.319 114.512 297.263 115.232 297.263 121.28C297.263 125.744 293.183 128.672 287.615 128.672C280.127 128.672 276.671 125.12 276.431 119.84H280.271C280.511 122.576 281.471 125.312 287.615 125.312C291.791 125.312 293.423 123.152 293.423 121.52C293.423 117.968 290.207 117.776 286.703 116.912C282.959 116 277.391 115.568 277.391 109.808C277.391 105.968 280.799 102.848 286.559 102.848C292.655 102.848 295.919 106.304 296.303 110.528H292.463C292.079 108.656 291.167 106.208 286.559 106.208C283.103 106.208 281.231 107.6 281.231 109.52C281.231 112.4 284.543 112.64 287.951 113.456ZM318.829 112.352C318.637 109.664 316.813 106.208 311.917 106.208C306.109 106.208 303.901 111.152 303.901 115.76C303.901 120.368 306.109 125.312 311.917 125.312C316.861 125.312 318.637 121.904 318.829 118.976H322.669C322.333 124.544 317.965 128.672 311.917 128.672C304.765 128.672 300.061 123.44 300.061 115.76C300.061 108.08 304.765 102.848 311.917 102.848C317.965 102.848 322.093 106.88 322.669 112.352H318.829ZM337.047 102.848C337.959 102.848 338.631 102.896 339.303 102.992V106.832H339.207C333.879 105.968 330.183 109.712 330.183 114.944V128H326.343V103.52H330.183V108.368H330.279C331.575 105.152 333.543 102.848 337.047 102.848ZM352.467 128.672C344.979 128.672 340.467 123.392 340.467 115.76C340.467 108.128 344.979 102.848 352.467 102.848C359.907 102.848 364.419 108.128 364.419 115.76C364.419 123.392 359.907 128.672 352.467 128.672ZM352.467 125.312C357.939 125.312 360.579 120.992 360.579 115.76C360.579 110.528 357.939 106.208 352.467 106.208C346.947 106.208 344.307 110.528 344.307 115.76C344.307 120.992 346.947 125.312 352.467 125.312ZM368.44 93.68H372.28V128H368.44V93.68ZM377.393 93.68H381.233V128H377.393V93.68Z" fill="black"/>
</svg>
